<svg xmlns="http://www.w3.org/2000/svg" viewBox="0 0 16.1 16"><defs><style>.cls-1{fill:#231f20;}</style></defs><path class="cls-1" d="M11.8,1A3.16,3.16,0,0,1,15,4.2v7.7A3.12,3.12,0,0,1,11.9,15H4.2A3.16,3.16,0,0,1,1,11.8V4.2A3.16,3.16,0,0,1,4.2,1h7.6m0-1H4.2A4.23,4.23,0,0,0,0,4.2v7.7A4.21,4.21,0,0,0,4.2,16h7.7a4.23,4.23,0,0,0,4.2-4.2V4.2A4.38,4.38,0,0,0,11.8,0Z"/><path class="cls-1" d="M8,4.9A3.1,3.1,0,1,1,4.9,8,3.12,3.12,0,0,1,8,4.9m0-1A4.06,4.06,0,0,0,3.9,8,4.06,4.06,0,0,0,8,12.1,4.06,4.06,0,0,0,12.1,8,4.06,4.06,0,0,0,8,3.9Z"/><circle class="cls-1" cx="12.3" cy="3.7" r="0.9"/></svg>
