<svg xmlns="http://www.w3.org/2000/svg" viewBox="0 0 22 12"><path d="M17.6,12a2.87,2.87,0,0,1-1.5-.5,4.89,4.89,0,0,1-1.3-1.2c-.3-.3-.9-.9-1.1-.9a1.34,1.34,0,0,0-.3,1.2,1.33,1.33,0,0,1-.3.9,1.63,1.63,0,0,1-.9.4H10.8A8.16,8.16,0,0,1,5.4,9.6C2.5,7.1.2,2.2.1,2,0,1.6-.1,1.2.2.9a1.62,1.62,0,0,1,1-.4H4.3A1.74,1.74,0,0,1,5,.8a2.2,2.2,0,0,1,.5.6,15.3,15.3,0,0,0,2.6,4,7.81,7.81,0,0,0,.1-2.3,2.51,2.51,0,0,0-.2-1,.76.76,0,0,0-.5-.2l-.6-.5c0-.5.5-.9.9-1.1A6.71,6.71,0,0,1,10.1,0h.5c.9,0,1.2.1,1.6.1,1.2.3,1.2,1.3,1.1,2.5V4.2a3.08,3.08,0,0,0,.1,1c.2-.1.6-.5,1.5-1.9A14.73,14.73,0,0,0,16,1.2,1.12,1.12,0,0,1,17.2.5h3.4c.7,0,1.2.2,1.3.7s.1,1.3-1.7,3.5a5.5,5.5,0,0,0-.7.9,3.17,3.17,0,0,0-.9,1.1c0,.1.5.5.9.9a8.88,8.88,0,0,1,2.2,2.3,1.32,1.32,0,0,1,.2,1.3c-.3.7-1.2.7-1.4.8H17.6ZM13.7,8.3c.7,0,1.2.6,1.8,1.2a5,5,0,0,0,1.1,1,2.15,2.15,0,0,0,1,.3h2.9c.1,0,.3-.1.4-.1a.1.1,0,0,0-.1-.1,9.1,9.1,0,0,0-2-2.1c-.9-.7-1.3-1.1-1.4-1.7s.4-1.1,1.2-2.1c.2-.2.4-.5.7-.8a9,9,0,0,0,1.5-2.3H16.9A6.68,6.68,0,0,1,15.8,4c-1.4,2.1-2,2.4-2.5,2.4a.6.6,0,0,1-.4-.1c-.7-.4-.7-1.4-.7-2.1V2.6c.1-1.3,0-1.3-.3-1.4a4.18,4.18,0,0,0-1.4-.1H10a6.15,6.15,0,0,0-1.4.1l.2.2a3.15,3.15,0,0,1,.4,1.7c.1,1.3,0,2.9-.7,3.3-.1,0-.2.1-.4.1-.6,0-1.3-.7-2.5-2.5C5,2.9,4.5,1.8,4.5,1.8a.1.1,0,0,0-.1-.1.35.35,0,0,1-.2-.1h-3A28.21,28.21,0,0,0,6,8.8a7.19,7.19,0,0,0,4.7,2h1.4s.2,0,.2-.1v-.1c0-.2,0-2,1.2-2.3Z"/></svg>
