<svg id="Layer_1" data-name="Layer 1" xmlns="http://www.w3.org/2000/svg" viewBox="0 0 190.4 37.6"><defs><style>.cls-1{fill:#fdc305;}.cls-2{fill:#f06351;}.cls-3{fill:#111;}</style></defs><path class="cls-1" d="M6.1,20.7l.1-2.3a136.17,136.17,0,0,1,20.2-1.3,10.87,10.87,0,0,1-.1,1.8,27.45,27.45,0,0,1,6-1.8A16.69,16.69,0,0,0,.2,20.4C2.4,20.5,6.1,20.7,6.1,20.7Z"/><path class="cls-1" d="M27.2,24.2c-1.2,1.3-1.4,1.2-1.4,3.5v9.2A16.62,16.62,0,0,0,33.2,23a15.53,15.53,0,0,0-.3-3.1A40.25,40.25,0,0,0,27.2,24.2Z"/><path class="cls-1" d="M6.4,25.7s-3.8-1.4-5.2-1.8L0,23.6a16.65,16.65,0,0,0,8.7,14Z"/><path class="cls-2" d="M26.3,17.1A95.5,95.5,0,0,0,24.9.6S24.7-.6,24,.4a15.28,15.28,0,0,0-1.2,3.9A77.62,77.62,0,0,0,10,4.6C9.2,2,7.9.8,7.2,1s-.7,3.4-.7,3.4L6.1,18.5A137.18,137.18,0,0,1,26.3,17.1Z"/><path d="M12.4,14c0-.1,1,.7,1.4.9s.6.4.6.6-.3.3-.6.3-.9-.1-1-.3H14A9.24,9.24,0,0,1,12.4,14Z"/><path d="M19.9,14.1a12.67,12.67,0,0,1-1.1,1.3c0,.1-.2.3.2.3a3,3,0,0,0,1.2-.3c.1-.1.1-.2-.1-.2a3.75,3.75,0,0,0-1,.1l.8-1.2Z"/><path d="M16.8,20.2a2.79,2.79,0,0,0,1.1-1c.3-.7,0-.9-.4-1a2.49,2.49,0,0,0-1.7.3.68.68,0,0,0-.1,1A4.13,4.13,0,0,0,16.8,20.2Z"/><path class="cls-2" d="M16.3,21.5a1.79,1.79,0,0,1-.5.6,1.53,1.53,0,0,1-1,.4,3.31,3.31,0,0,1-1.5-.4,2.18,2.18,0,0,1-.5-.4,1.73,1.73,0,0,0-.4-.3s.7,4.1,2.6,4.7,2.1-.7,2.2-1.1a6,6,0,0,0-.8-3.2C16.5,21.4,16.4,21.6,16.3,21.5Z"/><path d="M14.7,22.6h0a3.39,3.39,0,0,1-2.3-1.4V21h.2s1,1.3,2.1,1.3h0a1.94,1.94,0,0,0,1.6-1l.1-.2.1.2s.4.8,1,.8,1.1-.4,1.6-1.3c0-.1.1-.1.2,0s.1.1,0,.2a2.39,2.39,0,0,1-1.9,1.4,1.37,1.37,0,0,1-1.1-.8A1.82,1.82,0,0,1,14.7,22.6Z"/><path class="cls-2" d="M26.2,18.9a60.38,60.38,0,0,0-5.1,5.2A35.31,35.31,0,0,1,15.9,29c-.2-.5-1.6-1.5-1.6-1.5s-3.1-2.1-5.2-3.8c-1.2-1-2.3-2.2-3.1-3-.3,0-1.1-.1-2-.1a22.38,22.38,0,0,0,12,8.8c.9-.1,3.3-1.9,5.1-3.3A46.88,46.88,0,0,0,27,20.2a5.75,5.75,0,0,0,1.1-2Z"/><path class="cls-3" d="M91.2,29.8A7,7,0,0,1,90,25.4V19.1a7,7,0,0,1,1.2-4.4q1.2-1.5,4.2-1.5c1.9,0,3.2.4,4,1.3a5.41,5.41,0,0,1,1.2,3.8v1.5h-4V18a6.27,6.27,0,0,0-.2-1.6,1,1,0,0,0-1-.5c-.5,0-1,.2-1.1.6a3.51,3.51,0,0,0-.3,1.6v8.3a3.51,3.51,0,0,0,.3,1.6,1.06,1.06,0,0,0,1.1.6.92.92,0,0,0,1-.6,3.66,3.66,0,0,0,.2-1.6V24.6h3.9v1.5A6.05,6.05,0,0,1,99.3,30a5.09,5.09,0,0,1-4,1.4C93.4,31.3,92,30.8,91.2,29.8Z"/><path class="cls-3" d="M105.2,13.4h4.5L113,31h-3.6l-.6-3.7h-2.6l-.6,3.7h-3.7ZM108.4,25l-.9-6.9-.9,6.9Z"/><path class="cls-3" d="M115.8,16.3h-2.7V13.4h9.3v2.9h-2.7V31h-4V16.3Z"/><path class="cls-3" d="M129.5,13.4h6.9v1.8H132V21h3.6v1.7H132v6.4h4.5v1.8h-7Z"/><path class="cls-3" d="M138.5,13.4h1.7l5.1,11.7V13.4h2.1V31h-1.6l-5.1-12V31h-2.1V13.4Z"/><path class="cls-3" d="M149.8,13.4h6.9v1.8h-4.4V21h3.6v1.7h-3.6v6.4h4.5v1.8h-7Z"/><path class="cls-3" d="M158.8,13.4h3.6a6.36,6.36,0,0,1,4,1.1c.9.7,1.3,1.9,1.3,3.6,0,2.3-.7,3.6-2.2,4.1L168,31h-2.4l-2.3-8.3h-1.9V31h-2.5l-.1-17.6Zm3.4,7.6a3.52,3.52,0,0,0,2.3-.6,2.88,2.88,0,0,0,.7-2.3,7.18,7.18,0,0,0-.2-1.7,1.34,1.34,0,0,0-.9-.9,4,4,0,0,0-1.7-.3h-1.1V21Z"/><path class="cls-3" d="M170.8,29.7a7.84,7.84,0,0,1-1.1-4.5V19.4a10.92,10.92,0,0,1,.4-3.4,3.82,3.82,0,0,1,1.5-2,5,5,0,0,1,2.9-.7,4.89,4.89,0,0,1,3.6,1.2,5.86,5.86,0,0,1,1.1,3.9v.7h-2.3v-.6a8.44,8.44,0,0,0-.2-1.9,1.26,1.26,0,0,0-.7-1,2,2,0,0,0-1.4-.4,2.07,2.07,0,0,0-1.5.5,2.4,2.4,0,0,0-.7,1.2,12.17,12.17,0,0,0-.1,2.1v6.5a6.86,6.86,0,0,0,.5,2.9,2,2,0,0,0,1.9.9,1.87,1.87,0,0,0,1.9-1,7.6,7.6,0,0,0,.5-3.1V24h-2.3V22.3h4.5V31h-1.6l-.2-2a3.13,3.13,0,0,1-3.2,2.2A4,4,0,0,1,170.8,29.7Z"/><path class="cls-3" d="M184.3,24.8l-3.9-11.4h2.3l2.7,8.5,2.7-8.5h2.3l-3.8,11.4V31h-2.4V24.8Z"/></svg>