<svg id="Слой_1" data-name="Слой 1" xmlns="http://www.w3.org/2000/svg" xmlns:xlink="http://www.w3.org/1999/xlink" viewBox="0 0 202 60"><defs><style>.cls-1{fill:none;}.cls-2{clip-path:url(#clip-path);}.cls-3{fill:#fdc305;}.cls-4{fill:#f06351;}.cls-5{fill:#e55645;}.cls-6{fill:#111;}.cls-7{fill:#444;}</style><clipPath id="clip-path"><rect class="cls-1" width="201.99" height="59.48"/></clipPath></defs><g class="cls-2"><path class="cls-3" d="M59.88,24A25.61,25.61,0,1,0,32.51,59.2c-.58-2.09-1.17-4.4-1.69-6.85a32.45,32.45,0,0,0,4.76,2.55s.12,2.16.28,4.57A25.78,25.78,0,0,0,41.19,59a1.94,1.94,0,0,1,0-.76c.29-1.87,1.09-5.24,1.25-7.41a15.36,15.36,0,0,0,2.9-3.71l-.06.44c-.55,4.26-1.7,8.81-2.4,10.07a5.91,5.91,0,0,1-.83,1.15A25.65,25.65,0,0,0,59.88,24Zm-1.47,3.79c-.44.43-1.35.72-1.5-.58S56.72,25,56.72,25s-1.93-3.43-2.65-3.47-5.83,3.47-7.18,5c-1.17,1.29-1.4,1.2-1.4,3.47,0,1.71.22,8.17.1,13.11l-8.15,2.17A63.11,63.11,0,0,1,29.64,47l-1-5.83H28.5L25.93,28s-3.81-1.44-5.21-1.83a3.76,3.76,0,0,0-4,.63,4.89,4.89,0,0,0-1.28,1.74A4.94,4.94,0,0,0,15,30.65a7.25,7.25,0,0,1,.48,1.45c0,.48-1.2.43-2,.43s-.92-1.44-.29-3.13A22.67,22.67,0,0,1,15,25.66a11.83,11.83,0,0,1,2.07-2.89s.14-.34,1.25-.24S25.6,23,25.6,23l0-2.27a142.77,142.77,0,0,1,20.24-1.34v1.83a22.5,22.5,0,0,1,8.14-2,.91.91,0,0,1,.43.1,1,1,0,0,1,.34.29c.34.43,2.41,3,2.65,3.37a28.59,28.59,0,0,1,1.83,3,6.22,6.22,0,0,1-.87,1.84Z"/><path class="cls-4" d="M56.46,21.67l1,1.29a28.59,28.59,0,0,1,1.83,3,6.11,6.11,0,0,1-.86,1.78c-.44.43-1.35.72-1.5-.58S56.72,25,56.72,25s-1.93-3.43-2.65-3.47-5.83,3.47-7.18,5c-1.17,1.29-1.4,1.2-1.4,3.47,0,1.5.17,6.65.13,11.23,1.81.2,4.47.7,5.27,1.88,0,0-.29-7.18,7.81-3.42,0,0,.28-9.79,11.46-7.28A43.82,43.82,0,0,0,56.46,21.67Z"/><path class="cls-4" d="M45.93,19.35a90.73,90.73,0,0,0-1.4-16.53s-.15-1.3-.87-.24a14.42,14.42,0,0,0-1.2,4,71.32,71.32,0,0,0-12.82.34c-.82-2.75-2.22-4-2.89-3.67S26,6.53,26,6.53l-.33,14.16A143,143,0,0,1,45.93,19.35Z"/><path class="cls-5" d="M45.35,47.12c.13-1.07.2-2.49.24-4.06l-8.15,2.17A65.16,65.16,0,0,1,29.64,47l1.11,5a.57.57,0,0,0,.07.33,32.45,32.45,0,0,0,4.76,2.55,42.81,42.81,0,0,0,6.88-4.13v.06A15.22,15.22,0,0,0,45.35,47.12Z"/><path d="M32,16.22c-.05-.1,1,.68,1.41.92s.61.42.61.59-.26.34-.62.34a1.72,1.72,0,0,1-1-.26c-.08-.14.6,0,.94,0h.29A8.19,8.19,0,0,1,32,16.22Z"/><path d="M39.5,16.33s-1,1.28-1.09,1.34-.17.34.19.29a8.61,8.61,0,0,0,1.22-.28c.11-.06.07-.2-.12-.18s-.68.05-1,.11l.85-1.27S39.58,16.22,39.5,16.33Z"/><path d="M36.36,22.44a2.3,2.3,0,0,0,1.09-1c.28-.66,0-.91-.44-1a2.44,2.44,0,0,0-1.75.34.59.59,0,0,0,0,1A5.35,5.35,0,0,0,36.36,22.44Z"/><path class="cls-4" d="M36,23.7a1.92,1.92,0,0,1-.46.6,1.71,1.71,0,0,1-1,.38A2.19,2.19,0,0,1,33,24.24a2.08,2.08,0,0,1-.53-.45,1,1,0,0,0-.36-.25s.75,4.11,2.57,4.77,2.16-.76,2.21-1.14a5.59,5.59,0,0,0-.82-3.24C36.07,23.63,36.05,23.83,36,23.7Z"/><path d="M34.3,24.84A3.6,3.6,0,0,1,33,24.37a3.5,3.5,0,0,1-1-1,.15.15,0,0,1,0-.2l.05,0h.1l0,0a3.31,3.31,0,0,0,.92.87,3.42,3.42,0,0,0,1.19.44,2.08,2.08,0,0,0,.94-.3,2.13,2.13,0,0,0,.7-.7l.14-.19.1.22s.38.76,1,.8,1.06-.42,1.63-1.29a.15.15,0,0,1,.09-.06A.14.14,0,0,1,39,23a.15.15,0,0,1,.06.09.14.14,0,0,1,0,.11q-1,1.47-1.89,1.41a1.47,1.47,0,0,1-.64-.24A1.41,1.41,0,0,1,36,23.9a2.26,2.26,0,0,1-1.7.94Z"/><path class="cls-3" d="M36.26,38.3a3.75,3.75,0,1,0-3.75-3.75A3.75,3.75,0,0,0,36.26,38.3Z"/><path class="cls-6" d="M41.23,31.5,38.1,32.81l1.15-5.63-7.5,9.76,3.13-1.31-1.15,5.64Zm-7.39,3.83L38,29.92l-.81,4,2-.82L35,38.52l.81-4Z"/><path class="cls-6" d="M32.44,33.86a1.12,1.12,0,1,0-1.12-1.12A1.12,1.12,0,0,0,32.44,33.86Z"/><path class="cls-6" d="M39,37.92a.79.79,0,1,0-.79-.79A.79.79,0,0,0,39,37.92Z"/><path class="cls-6" d="M39.92,35.75a.35.35,0,1,0-.35-.35A.35.35,0,0,0,39.92,35.75Z"/><path class="cls-4" d="M45.88,21.16a56.87,56.87,0,0,0-5.09,5.21,32,32,0,0,1-5.31,4.9c-.22-.53-1.63-1.52-1.63-1.52s-3.14-2.15-5.2-3.84a32.94,32.94,0,0,1-3.14-3l-2-.11a22.65,22.65,0,0,0,12,8.84c.86-.14,3.28-1.87,5.09-3.28a57.73,57.73,0,0,0,6-5.91,6.41,6.41,0,0,0,1.14-2C46.6,20.83,45.88,21.16,45.88,21.16Z"/><path class="cls-3" d="M65.22,3.5l-8.46,9.44-1.22-2L63.69,0Z"/><path class="cls-3" d="M62.65,17.26l5.54-4.11-.78-3.74L62,14.22Z"/><path class="cls-3" d="M59.92,49.37l6.13,3.18,3-2.34-6.69-2.75Z"/><path class="cls-3" d="M2,6,5,2.61l9.29,9-1.22,2.28Z"/><path class="cls-3" d="M7.38,16.28l-4.7-3.13L.28,17l5.15,2.4Z"/><path class="cls-3" d="M13.91,52.55,9.36,55.9l2.8,3.58,4-4Z"/><path class="cls-4" d="M25.93,28s-3.81-1.44-5.21-1.83a3.76,3.76,0,0,0-4,.63,4.89,4.89,0,0,0-1.28,1.74A4.94,4.94,0,0,0,15,30.65a7.25,7.25,0,0,1,.48,1.45c0,.48-1.2.43-2,.43s-.92-1.44-.29-3.13A22.67,22.67,0,0,1,15,25.66c-5.45,2.84-15,9.4-15,9.4a46.7,46.7,0,0,1,8.19.24c5.25.53,5,4.67,5,4.67a38.65,38.65,0,0,1,5.63-1.11c2.12-.14,2.27,2.12,2.27,2.12l.53,3.86a18,18,0,0,1,2.65-2.36,6.07,6.07,0,0,1,4.38-1.3Z"/><path class="cls-6" d="M85.66,42a8.31,8.31,0,0,1-1.4-5.19v-7.5a8.46,8.46,0,0,1,1.38-5.24c.93-1.19,2.51-1.79,4.75-1.78s3.76.53,4.55,1.57a6.7,6.7,0,0,1,1.33,4.49v1.76H92.13V28.2A10.85,10.85,0,0,0,92,26.7a1.65,1.65,0,0,0-.47-.95,1.44,1.44,0,0,0-.54-.3,1.57,1.57,0,0,0-.61-.07,1.45,1.45,0,0,0-.87.14,1.43,1.43,0,0,0-.63.61,5.49,5.49,0,0,0-.34,2.2v9.52a4.75,4.75,0,0,0,.39,2.2,1.45,1.45,0,0,0,.62.58,1.47,1.47,0,0,0,.83.15,1.37,1.37,0,0,0,.82-.14,1.4,1.4,0,0,0,.58-.6,5.82,5.82,0,0,0,.31-2.19v-2h4.14v1.73A7.25,7.25,0,0,1,95,42.19c-.88,1.1-2.4,1.64-4.56,1.64S86.59,43.23,85.66,42Z"/><path class="cls-6" d="M101.91,22.58h4.74l4,21h-3.94L106,38.94h-3.32l-.8,4.61h-4Zm3.65,13.72-1.26-8.44-1.25,8.44Z"/><path class="cls-6" d="M113.72,25.74h-3.24V22.58H121.2v3.16H118V43.55h-4.29Z"/><path class="cls-7" d="M129.61,22.58h8.13v2.18h-5.2v6.93h4.22v2.07h-4.22v7.69h5.25v2.1h-8.18Z"/><path class="cls-7" d="M140.15,22.58h2l6,13.93V22.58h2.44v21h-1.87l-6-14.32V43.55h-2.48Z"/><path class="cls-7" d="M153.82,22.58h8.12v2.18h-5.2v6.93H161v2.07h-4.22v7.69H162v2.1h-8.18Z"/><path class="cls-7" d="M164.35,22.58h4.22a7,7,0,0,1,4.67,1.31c1,.87,1.49,2.29,1.49,4.26q0,4-2.59,4.89l3,10.51H172.3l-2.75-9.84h-2.27v9.84h-2.93Zm4,9a3.9,3.9,0,0,0,2.7-.76,3.57,3.57,0,0,0,.69-1.27,3.52,3.52,0,0,0,.13-1.44,5.88,5.88,0,0,0-.29-2,1.9,1.9,0,0,0-.39-.64,1.76,1.76,0,0,0-.61-.44,4.65,4.65,0,0,0-2.05-.35h-1.29v6.94Z"/><path class="cls-7" d="M178.67,42a9.2,9.2,0,0,1-1.27-5.35v-7a13.51,13.51,0,0,1,.5-4,4.46,4.46,0,0,1,1.74-2.41A5.91,5.91,0,0,1,183,22.4a5.22,5.22,0,0,1,2.25.28,5.11,5.11,0,0,1,1.93,1.2,7,7,0,0,1,1.28,4.63v.78h-2.75v-.65a11.29,11.29,0,0,0-.18-2.32,2,2,0,0,0-.76-1.23,3,3,0,0,0-1.72-.41,2.53,2.53,0,0,0-1.81.56,2.48,2.48,0,0,0-.77,1.48,14.82,14.82,0,0,0-.17,2.49V37a7.47,7.47,0,0,0,.59,3.46,2.89,2.89,0,0,0,1,.79,2.83,2.83,0,0,0,1.25.26,3,3,0,0,0,1.24-.31,2.87,2.87,0,0,0,1-.83,8.13,8.13,0,0,0,.61-3.65V35.24h-2.66V33.17h5.3V43.55H186.8l-.29-2.41a3.68,3.68,0,0,1-3.73,2.67A4.67,4.67,0,0,1,178.67,42Z"/><path class="cls-7" d="M194.69,36.15l-4.53-13.57h2.72l3.21,10.12,3.16-10.12H202l-4.5,13.57v7.4h-2.8Z"/></g></svg>