<svg id="Layer_2" data-name="Layer 2" xmlns="http://www.w3.org/2000/svg" viewBox="0 0 172.3 57.1"><defs><style>.cls-1{fill:#fdc305;}.cls-2{fill:#f06351;}.cls-3{fill:#e55645;}.cls-4{fill:#111;}.cls-5{fill:#444;}</style></defs><path class="cls-1" d="M59.6,21.7a25.48,25.48,0,1,0-47,19.7A25.75,25.75,0,0,0,32.4,56.8c-.6-2.1-1.2-4.4-1.7-6.8a30.35,30.35,0,0,0,4.7,2.5h0s.1,2.1.3,4.5a23.8,23.8,0,0,0,5.3-.5v-.8c.3-1.9,1.1-5.2,1.2-7.4a17.57,17.57,0,0,0,2.9-3.7h0a.6.6,0,0,1-.1.4c-.6,4.2-1.7,8.8-2.4,10a3.13,3.13,0,0,1-.8,1.1,32.38,32.38,0,0,0,4.1-1.3A25,25,0,0,0,59.6,21.7Zm-1.4,3.8c-.4.4-1.3.7-1.5-.6s-.2-2.2-.2-2.2-1.9-3.4-2.6-3.5-5.8,3.5-7.1,4.9-1.4,1.2-1.4,3.5c0,1.7.2,8.1.1,13.1h0l-8.1,2.2a61.9,61.9,0,0,1-7.8,1.8l-1-5.8h0L26,25.8s-3.8-1.4-5.2-1.8-2.3-.7-4,.6a4.83,4.83,0,0,0-1.7,3.8s.4,1,.5,1.4-1.2.4-2,.4-.9-1.4-.3-3.1a21.34,21.34,0,0,1,1.9-3.7,10.9,10.9,0,0,1,2.1-2.9s.1-.3,1.2-.2,7.2.4,7.2.4l.1-2.3A136.17,136.17,0,0,1,46,17.1a10.87,10.87,0,0,1-.1,1.8,23.64,23.64,0,0,1,8.1-2,1.24,1.24,0,0,1,.8.4c.3.4,2.4,3,2.6,3.4a32.52,32.52,0,0,1,1.8,3C59,23.7,58.6,25.1,58.2,25.5Z"/><path class="cls-2" d="M56.2,19.4a11.46,11.46,0,0,1,1,1.3,32.52,32.52,0,0,1,1.8,3,5.71,5.71,0,0,1-.9,1.8c-.4.4-1.3.7-1.5-.6s-.2-2.2-.2-2.2-1.9-3.4-2.6-3.5-5.8,3.5-7.1,4.9-1.4,1.2-1.4,3.5c0,1.5.2,6.6.1,11.2,1.8.2,4.4.7,5.2,1.9,0,0-.3-7.1,7.8-3.4,0,0,.3-9.7,11.4-7.2A41.36,41.36,0,0,0,56.2,19.4Z"/><path class="cls-2" d="M45.7,17.1A95.5,95.5,0,0,0,44.3.6s-.1-1.3-.9-.2a15.28,15.28,0,0,0-1.2,3.9,77.62,77.62,0,0,0-12.8.3C28.6,1.9,27.2.7,26.5,1s-.7,3.3-.7,3.3l-.3,14.1A152.23,152.23,0,0,1,45.7,17.1Z"/><path class="cls-3" d="M45.2,44.8c.1-1.1.2-2.5.2-4L37.3,43a61.9,61.9,0,0,1-7.8,1.8l1.1,5a.37.37,0,0,0,.1.3,30.35,30.35,0,0,0,4.7,2.5,42.67,42.67,0,0,0,6.8-4.1v.1A20.84,20.84,0,0,0,45.2,44.8Z"/><path d="M31.9,14c0-.1,1,.7,1.4.9s.6.4.6.6-.3.3-.6.3-.9-.1-1-.3h1.2A5.2,5.2,0,0,1,31.9,14Z"/><path d="M39.3,14.1a12.67,12.67,0,0,1-1.1,1.3c-.1,0-.2.3.2.3a3,3,0,0,0,1.2-.3c.1-.1.1-.2-.1-.2a3.75,3.75,0,0,0-1,.1l.8-1.2C39.4,14.1,39.4,14,39.3,14.1Z"/><path d="M36.2,20.2a2.79,2.79,0,0,0,1.1-1c.3-.6,0-.9-.4-1a2.49,2.49,0,0,0-1.7.3.68.68,0,0,0-.1,1A4.13,4.13,0,0,0,36.2,20.2Z"/><path class="cls-2" d="M35.8,21.4a1.79,1.79,0,0,1-.5.6,1.53,1.53,0,0,1-1,.4,3.31,3.31,0,0,1-1.5-.4,2.18,2.18,0,0,1-.5-.4,1.73,1.73,0,0,0-.4-.3s.7,4.1,2.6,4.7,2.1-.7,2.2-1.1a6,6,0,0,0-.8-3.2C35.9,21.4,35.9,21.6,35.8,21.4Z"/><path d="M34.2,22.6h0a3.39,3.39,0,0,1-2.3-1.4V21h.2s1,1.3,2.1,1.3h0a1.94,1.94,0,0,0,1.6-1l.1-.2.1.2s.4.8,1,.8,1.1-.4,1.6-1.3c0-.1.1-.1.2,0s.1.1,0,.2a2.39,2.39,0,0,1-1.9,1.4,1.37,1.37,0,0,1-1.1-.8A1.82,1.82,0,0,1,34.2,22.6Z"/><path class="cls-4" d="M41.1,29.2,38,30.5l1.1-5.6-7.5,9.7,3.1-1.3-1.1,5.6ZM33.7,33l4.1-5.4-.8,4,2-.8-4.1,5.4.8-4Z"/><path class="cls-2" d="M45.7,18.9a60.38,60.38,0,0,0-5.1,5.2A34,34,0,0,1,35.3,29c-.2-.5-1.6-1.5-1.6-1.5s-3.1-2.1-5.2-3.8c-1.2-1-2.3-2.2-3.1-3-.3,0-1.1-.1-2-.1a22.38,22.38,0,0,0,12,8.8c.9-.1,3.3-1.9,5.1-3.3a46.88,46.88,0,0,0,5.9-5.9,5.75,5.75,0,0,0,1.1-2C46.4,18.6,45.7,18.9,45.7,18.9Z"/><path class="cls-2" d="M25.8,25.7s-3.8-1.4-5.2-1.8-2.3-.7-4,.6a4.83,4.83,0,0,0-1.7,3.8s.4,1,.5,1.4-1.2.4-2,.4-.9-1.4-.3-3.1A21.34,21.34,0,0,1,15,23.3C9.6,26.1,0,32.7,0,32.7a46.36,46.36,0,0,1,8.2.2c5.2.5,4.9,4.7,4.9,4.7a32.83,32.83,0,0,1,5.6-1.1A2.24,2.24,0,0,1,21,38.6l.5,3.8A27,27,0,0,1,24.1,40a5.89,5.89,0,0,1,4.4-1.3h0Z"/><path class="cls-4" d="M89.6,37.1a5.82,5.82,0,0,1-1-3.7V28.1a5.63,5.63,0,0,1,1-3.7A4.28,4.28,0,0,1,93,23.1a4.11,4.11,0,0,1,3.2,1.1,4.89,4.89,0,0,1,.9,3.2v1.3H94.2V27.3a3.75,3.75,0,0,0-.1-1.1,1.49,1.49,0,0,0-.3-.7,1.14,1.14,0,0,0-.8-.3,1.17,1.17,0,0,0-1.1.5,3.66,3.66,0,0,0-.2,1.6v6.8a3.51,3.51,0,0,0,.3,1.6,1.25,1.25,0,0,0,2,0,5.67,5.67,0,0,0,.2-1.6V32.6h2.9v1.2a5.39,5.39,0,0,1-.9,3.3A3.81,3.81,0,0,1,93,38.3C91.3,38.4,90.2,38,89.6,37.1Z"/><path class="cls-4" d="M101.1,23.3h3.4l2.9,14.9h-2.8l-.6-3.3h-2.4l-.6,3.3H98.1Zm2.6,9.7-.9-6-.9,6Z"/><path class="cls-4" d="M109.5,25.5h-2.3V23.3h7.6v2.2h-2.3V38.2h-3.1V25.5Z"/><path class="cls-5" d="M120.8,23.3h5.8v1.5h-3.7v4.9h3v1.5h-3v5.5h3.7v1.5h-5.8Z"/><path class="cls-5" d="M128.3,23.3h1.4l4.2,9.9V23.3h1.7V38.2h-1.3L130.1,28V38.2h-1.8Z"/><path class="cls-5" d="M138,23.3h5.8v1.5h-3.7v4.9h3v1.5h-3v5.5h3.7v1.5H138Z"/><path class="cls-5" d="M145.5,23.3h3a5,5,0,0,1,3.3.9,3.78,3.78,0,0,1,1.1,3c0,1.9-.6,3.1-1.8,3.5l2.1,7.5h-2l-2-7h-1.6v7h-2.1Zm2.9,6.4a3.09,3.09,0,0,0,1.9-.5,2.55,2.55,0,0,0,.6-1.9,4.64,4.64,0,0,0-.2-1.4,1.78,1.78,0,0,0-.7-.8,3,3,0,0,0-1.5-.2h-.9v4.9h.8Z"/><path class="cls-5" d="M155.7,37.1a6.67,6.67,0,0,1-.9-3.8v-5a7.22,7.22,0,0,1,.4-2.8,3.53,3.53,0,0,1,1.2-1.7,4.27,4.27,0,0,1,2.4-.6,3.75,3.75,0,0,1,3,1,5,5,0,0,1,.9,3.3v.6h-2v-.5a6.66,6.66,0,0,0-.1-1.6,1.93,1.93,0,0,0-.5-.9,2.13,2.13,0,0,0-1.2-.3,1.7,1.7,0,0,0-1.3.4,1.43,1.43,0,0,0-.5,1.1,8.66,8.66,0,0,0-.1,1.8v5.5a5.4,5.4,0,0,0,.4,2.5,1.65,1.65,0,0,0,1.6.7,1.7,1.7,0,0,0,1.6-.8,5.61,5.61,0,0,0,.4-2.6v-1h-2V30.9h3.8v7.4h-1.3l-.2-1.7a2.67,2.67,0,0,1-2.7,1.9A3.55,3.55,0,0,1,155.7,37.1Z"/><path class="cls-5" d="M167.1,32.9l-3.2-9.6h1.9l2.3,7.2,2.2-7.2h2l-3.2,9.6v5.3h-2Z"/></svg>